<svg width="30" height="31" viewBox="0 0 30 31" fill="none" xmlns="http://www.w3.org/2000/svg">
<path d="M20.625 0.940918H9.375C4.19813 0.940918 0 5.13904 0 10.3159V21.5659C0 26.7428 4.19813 30.9409 9.375 30.9409H20.625C25.8019 30.9409 30 26.7428 30 21.5659V10.3159C30 5.13904 25.8019 0.940918 20.625 0.940918ZM27.1875 21.5659C27.1875 25.1847 24.2437 28.1284 20.625 28.1284H9.375C5.75625 28.1284 2.8125 25.1847 2.8125 21.5659V10.3159C2.8125 6.69717 5.75625 3.75342 9.375 3.75342H20.625C24.2437 3.75342 27.1875 6.69717 27.1875 10.3159V21.5659Z" fill="url(#paint0_linear)"/>
<path d="M14.7 8.84027C10.5581 8.84027 7.20001 12.1984 7.20001 16.3402C7.20001 20.4821 10.5581 23.8402 14.7 23.8402C18.8419 23.8402 22.2 20.4821 22.2 16.3402C22.2 12.1984 18.8419 8.84027 14.7 8.84027ZM14.7 21.0277C12.1163 21.0277 10.0125 18.9239 10.0125 16.3402C10.0125 13.7546 12.1163 11.6527 14.7 11.6527C17.2838 11.6527 19.3875 13.7546 19.3875 16.3402C19.3875 18.9239 17.2838 21.0277 14.7 21.0277Z" fill="url(#paint1_linear)"/>
<path d="M23.0626 8.87792C23.6145 8.87792 24.062 8.43045 24.062 7.87847C24.062 7.3265 23.6145 6.87903 23.0626 6.87903C22.5106 6.87903 22.0632 7.3265 22.0632 7.87847C22.0632 8.43045 22.5106 8.87792 23.0626 8.87792Z" fill="url(#paint2_linear)"/>
<defs>
<linearGradient id="paint0_linear" x1="2.74622" y1="28.1949" x2="27.2538" y2="3.68695" gradientUnits="userSpaceOnUse">
<stop stop-color="#FFC107"/>
<stop offset="0.507" stop-color="#F44336"/>
<stop offset="0.99" stop-color="#9C27B0"/>
</linearGradient>
<linearGradient id="paint1_linear" x1="9.39686" y1="21.6433" x2="20.0031" y2="11.037" gradientUnits="userSpaceOnUse">
<stop stop-color="#FFC107"/>
<stop offset="0.507" stop-color="#F44336"/>
<stop offset="0.99" stop-color="#9C27B0"/>
</linearGradient>
<linearGradient id="paint2_linear" x1="22.356" y1="8.58531" x2="23.7692" y2="7.17191" gradientUnits="userSpaceOnUse">
<stop stop-color="#FFC107"/>
<stop offset="0.507" stop-color="#F44336"/>
<stop offset="0.99" stop-color="#9C27B0"/>
</linearGradient>
</defs>
</svg>
