<svg width="77" height="51" viewBox="0 0 77 51" fill="none" xmlns="http://www.w3.org/2000/svg">
<path d="M74.365 18.3914C73.2445 18.3914 73.2445 17.4918 73.2445 17.06C73.2445 14.865 73.2445 12.3461 73.2445 10.1871C73.1427 10.1511 69.4755 15.4767 68.0154 17.6717C67.608 18.2835 67.4042 18.2475 66.5554 18.3194C65.5027 18.3914 65.5027 17.5638 65.5027 17.1679C65.5027 13.6415 65.5027 10.0431 65.5027 6.40876C65.5027 6.01293 65.5027 5.1853 66.6233 5.1853C67.7777 5.1853 67.7777 6.01293 67.7777 6.44474C67.7777 8.67574 67.7777 11.4105 67.7777 13.6415C67.8796 13.6775 71.4109 8.13598 72.7012 6.0849C73.0068 5.61711 73.2445 5.29325 74.3311 5.29325C75.3837 5.29325 75.4516 5.90498 75.4516 6.19285C75.4516 9.68329 75.4516 13.2817 75.4516 16.988C75.5195 17.4198 75.5195 18.3914 74.365 18.3914Z" fill="black"/>
<path d="M72.8031 0.939209C74.6027 0.939209 72.8371 3.53005 70.4602 3.53005C68.2192 3.53005 66.4196 0.903225 68.2192 0.939209C69.3736 0.939209 69.102 1.83881 70.4942 1.83881C71.8184 1.80282 71.6826 0.939209 72.8031 0.939209Z" fill="black"/>
<path d="M29.2727 5.04138C30.529 5.04138 30.529 5.83303 30.529 6.22885C30.529 7.16443 30.495 8.10001 30.563 9.07158C30.6309 10.9427 31.276 11.5185 33.1775 11.4825C34.2301 11.4465 35.4865 11.4825 35.4865 11.4825C35.4865 11.4825 35.5204 9.97118 35.5204 9.0356C35.5204 8.31592 35.5204 7.16443 35.5544 6.44475C35.5544 6.01295 35.4864 5.2213 36.8786 5.2213C38.067 5.2213 38.067 6.04893 38.067 6.44475C38.067 9.93519 38.067 13.4256 38.067 16.988C38.067 17.4558 38.067 18.4274 36.8447 18.4274C35.5883 18.4274 35.5883 17.4558 35.5883 16.988C35.5883 15.9085 35.5883 14.937 35.5883 13.8215C34.0603 13.8574 32.7361 13.8215 31.4458 13.7135C29.1368 13.4976 28.1182 12.2022 28.0503 9.79126C28.0163 8.63977 28.0163 7.48829 28.0503 6.3368C27.9145 6.1209 27.9145 5.04138 29.2727 5.04138Z" fill="black"/>
<path d="M2.82167 5.04138C1.63324 5.04138 1.63324 6.08492 1.63324 6.08492V17.3839C1.63324 17.3839 1.63324 18.3194 2.78771 18.3194C3.84032 18.3194 3.84032 17.3839 3.84032 17.3839V12.4181L9.20523 12.4541V17.3119C9.20523 17.3119 9.27314 18.3194 10.3257 18.3194C11.4463 18.3194 11.4463 17.3839 11.4463 17.3839V6.08492C11.4463 6.08492 11.4463 5.04138 10.3597 5.04138C9.17127 5.04138 9.20523 6.08492 9.20523 6.08492V10.1511H3.90823V6.08492C3.90823 6.08492 3.94219 5.04138 2.82167 5.04138Z" fill="black"/>
<path d="M20.2406 4.21375C26.3865 4.21375 26.3865 11.1946 26.3865 11.1946C26.3865 11.1946 26.3865 18.2835 20.2406 18.2835C13.8231 18.2835 13.8231 11.2666 13.8231 11.2666C13.8231 11.2666 13.8231 4.21375 20.2406 4.21375Z" fill="black"/>
<path d="M20.1388 6.51672C24.0776 6.51672 24.0776 11.2666 24.0776 11.2666C24.0776 11.2666 24.0776 16.1964 20.1388 16.1964C16.3019 16.1964 16.3019 11.2666 16.3019 11.2666C16.3019 11.2666 16.3019 6.51672 20.1388 6.51672Z" fill="white"/>
<path d="M41.4626 5.11328C40.2742 5.11328 40.2742 6.15681 40.2742 6.15681V17.4558C40.2742 17.4558 40.2742 18.3913 41.4286 18.3913C42.4813 18.3913 42.4813 17.4558 42.4813 17.4558V12.49L47.8462 12.526V17.3838C47.8462 17.3838 47.9141 18.3913 48.9667 18.3913C50.0872 18.3913 50.0872 17.4558 50.0872 17.4558V6.1928C50.0872 6.1928 50.0872 5.14927 49.0006 5.14927C47.8122 5.14927 47.8462 6.1928 47.8462 6.1928V10.259H42.5492V6.1928C42.5492 6.1928 42.5831 5.11328 41.4626 5.11328Z" fill="black"/>
<path d="M57.9648 4.32166C64.1106 4.32166 64.1106 11.3025 64.1106 11.3025C64.1106 11.3025 64.1106 18.3914 57.9648 18.3914C51.5472 18.3914 51.5472 11.3745 51.5472 11.3745C51.5472 11.3745 51.5472 4.32166 57.9648 4.32166Z" fill="black"/>
<path d="M57.8629 6.62463C61.8017 6.62463 61.8017 11.3745 61.8017 11.3745C61.8017 11.3745 61.8017 16.3043 57.8629 16.3043C54.026 16.2683 54.026 11.3385 54.026 11.3385C54.026 11.3385 54.026 6.62463 57.8629 6.62463Z" fill="white"/>
<path d="M1.66717 22.6735C9.98617 22.6735 18.2712 22.6735 26.5902 22.6735C39.8327 22.6735 53.1092 22.6735 66.3517 22.6735C69.4076 22.6735 72.4636 22.6735 75.5195 22.6735C76.6061 22.6735 76.6061 20.8743 75.5195 20.8743C67.2005 20.8743 58.9155 20.8743 50.5965 20.8743C37.354 20.8743 24.0775 20.8743 10.835 20.8743C7.77909 20.8743 4.72313 20.8743 1.66717 20.8743C0.546653 20.8743 0.546653 22.6735 1.66717 22.6735Z" fill="black"/>
<path d="M18.1354 38.9382C18.1354 39.8378 19.2899 39.8378 19.2899 39.8378C19.2899 39.8378 20.1387 39.8378 20.4783 39.8378C22.3798 39.8378 22.3458 37.6068 22.3458 37.6068V29.0786L26.6242 29.0066V38.4344C26.6242 38.4344 26.6581 39.8738 27.8465 39.8738C29.035 39.8738 29.035 38.3984 29.035 38.3984C29.035 38.3984 29.035 30.6979 29.035 28.107C29.035 27.1715 28.6954 26.7756 27.507 26.7756C25.7074 26.7756 22.8212 26.7756 21.5648 26.7756C20.5122 26.7756 20.3085 27.4233 20.3085 28.179C20.3085 30.2661 20.3085 36.9591 20.3085 36.9591C20.3085 36.9591 20.3764 37.4988 20.1048 37.7507C19.7992 38.0746 19.3917 38.0746 19.3917 38.0746C19.3917 38.0746 18.1354 38.0386 18.1354 38.9382Z" fill="black"/>
<path d="M33.1436 26.7037L38.848 26.6677C38.848 26.6677 39.8667 26.7037 39.8667 27.5313C39.8667 28.5749 38.8141 28.5749 38.8141 28.5749H33.7548V31.9574H38.5085C38.5085 31.9574 39.4253 32.0293 39.4253 32.857C39.4253 33.8285 38.5425 33.8645 38.5425 33.8645H33.7887V37.9667H38.8141C38.8141 37.9667 39.8327 38.0027 39.8327 38.8663C39.8327 39.7659 38.8141 39.7659 38.8141 39.7659H33.0417C33.0417 39.7659 31.8193 39.478 31.8193 38.5424C31.8193 35.9516 31.8193 30.518 31.8193 28.0711C31.8193 26.7037 33.1436 26.7037 33.1436 26.7037Z" fill="black"/>
<path d="M43.2622 26.4159C42.0059 26.4159 42.0059 27.6393 42.0059 27.6393V38.1466C42.0059 38.1466 42.0059 39.478 43.2622 39.478C44.4506 39.478 44.5185 38.1106 44.5185 38.1106V33.9005H45.4353C45.4353 33.9005 47.0652 34.8721 48.4234 38.8663C48.4913 39.0822 48.9667 39.478 50.1551 39.478C51.2756 39.478 51.717 39.1542 51.4793 38.6504C50.7663 36.9232 48.4234 32.857 46.8275 32.6771C46.8275 32.6771 48.2196 32.2453 48.6611 30.662C49.2723 28.5029 49.3402 28.359 50.5626 28.2151C50.9021 28.1791 51.5472 27.9632 51.5472 27.2435C51.5472 26.3799 50.5965 26.3799 50.5965 26.3799C50.5965 26.3799 47.7782 26.056 47.1331 29.0067C46.6238 31.4896 44.4846 31.5616 44.4846 31.5616V27.6033C44.5185 27.6033 44.5185 26.4159 43.2622 26.4159Z" fill="black"/>
<path d="M10.4616 26.2C18.1354 26.2 18.1354 33.1808 18.1354 33.1808C18.1354 33.1808 18.1354 40.2697 10.4616 40.2697C2.48212 40.2697 2.48212 33.2528 2.48212 33.2528C2.48212 33.2528 2.44816 26.2 10.4616 26.2Z" fill="black"/>
<path d="M10.2918 28.4669C15.1813 28.4669 15.8265 31.2017 15.8265 33.2168C15.8265 35.2679 15.1813 38.1466 10.2918 38.1466C5.50413 38.1466 4.68921 35.2679 4.68921 33.2168C4.68921 31.1657 5.53809 28.4669 10.2918 28.4669Z" fill="white"/>
<path d="M10.3597 13.8574C11.4462 13.8574 11.5141 17.4198 11.4462 17.2759C11.3783 17.132 11.4462 48.9777 11.4462 48.9777C11.4462 48.9777 11.4802 50.2372 10.3597 50.2372C9.40893 50.2372 9.40893 48.6539 9.40893 48.6539L9.2052 16.8801C9.2052 16.8801 9.2052 13.8574 10.3597 13.8574Z" fill="black"/>
<path d="M60.7151 29.4025C60.7151 29.4025 61.3263 30.6259 62.4468 30.2301C63.4994 29.8703 62.8543 28.5029 62.8543 28.5029C62.8543 28.5029 62.1752 26.1639 58.508 26.1639C52.0905 26.1639 52.5659 32.785 52.5659 32.785C52.5659 32.785 52.4301 39.442 58.3383 39.478C62.4808 39.478 63.1259 36.2754 63.1259 36.2754C63.1259 36.2754 63.5674 35.3398 62.5827 34.908C61.6659 34.5122 61.2584 35.016 61.0886 35.3758C60.7491 36.1315 60.6133 37.1031 58.3383 37.1031C55.1125 37.1031 55.2823 33.0369 55.2823 33.0369C55.2823 33.0369 54.773 28.287 58.4401 28.287C60.2058 28.323 60.7151 29.4025 60.7151 29.4025Z" fill="black"/>
</svg>
