<svg width="43" height="28" viewBox="0 0 43 28" fill="none" xmlns="http://www.w3.org/2000/svg">
<path d="M21.0399 27.886H23.6093C23.6093 27.886 24.3861 27.7911 24.7812 27.3198C25.1467 26.8871 25.1333 26.0749 25.1333 26.0749C25.1333 26.0749 25.0822 22.2718 26.6841 21.7115C28.2617 21.1602 30.2883 25.3872 32.4357 27.0145C34.0591 28.2447 35.2928 27.9749 35.2928 27.9749L41.0364 27.886C41.0364 27.886 44.0412 27.6815 42.6167 25.0759C42.5012 24.8625 41.7862 23.1492 38.346 19.6277C34.7445 15.9402 35.2283 16.5389 39.5662 10.1629C42.2082 6.27974 43.2645 3.90836 42.9339 2.8946C42.6194 1.92826 40.6762 2.18318 40.6762 2.18318L34.215 2.22468C34.215 2.22468 33.7366 2.15354 33.3791 2.38771C33.0324 2.61892 32.8093 3.15248 32.8093 3.15248C32.8093 3.15248 31.7853 6.15821 30.42 8.71338C27.5414 14.1053 26.3884 14.3899 25.9181 14.0549C24.8242 13.2753 25.0983 10.9188 25.0983 9.24694C25.0983 4.021 25.8159 1.84229 23.698 1.27909C22.9939 1.09234 22.4778 0.967847 20.6797 0.947098C18.3737 0.920419 16.4197 0.95599 15.3151 1.5518C14.5787 1.94901 14.0116 2.83531 14.3583 2.8857C14.7856 2.94795 15.7532 3.17323 16.2665 3.94393C16.9304 4.93695 16.9062 7.17198 16.9062 7.17198C16.9062 7.17198 17.2879 13.3228 16.0166 14.0875C15.1431 14.6122 13.9471 13.5421 11.3803 8.64816C10.066 6.14339 9.07158 3.37184 9.07158 3.37184C9.07158 3.37184 8.88075 2.85606 8.53941 2.58039C8.12551 2.24543 7.54497 2.13872 7.54497 2.13872L1.40089 2.18022C1.40089 2.18022 0.47901 2.20986 0.14036 2.65153C-0.160662 3.04577 0.116171 3.85797 0.116171 3.85797C0.116171 3.85797 4.92715 16.2692 10.3724 22.5267C15.3689 28.2625 21.0399 27.886 21.0399 27.886Z" fill="#1E88E5"/>
</svg>
